<svg width="221" height="1234" viewBox="0 0 221 1234" fill="none" xmlns="http://www.w3.org/2000/svg">
<line x1="209.5" y1="-2.18557e-08" x2="209.5" y2="759" stroke="#3D3D3D"/>
<line x1="190.5" y1="174" x2="190.5" y2="933" stroke="#3D3D3D"/>
<circle cx="209" cy="771" r="4" fill="#454545"/>
<circle cx="209" cy="831" r="4" fill="#454545"/>
<circle cx="209" cy="791" r="4" fill="#454545"/>
<circle cx="209" cy="851" r="4" fill="#454545"/>
<circle cx="209" cy="811" r="4" fill="#454545"/>
<circle cx="209" cy="871" r="4" fill="#454545"/>
<rect x="95" y="444" width="81" height="17" fill="#454545"/>
<rect y="512" width="42" height="17" fill="#454545"/>
<circle cx="142.5" cy="82.5" r="47" stroke="#454545"/>
<rect x="174" y="1232" width="12" height="47" transform="rotate(-90 174 1232)" fill="#454545"/>
<rect x="174" y="1232" width="12" height="3" transform="rotate(-90 174 1232)" fill="#211F1F"/>
<rect x="177" y="1220" width="44" height="3" fill="#211F1F"/>
<rect x="174" y="1234" width="2" height="47" transform="rotate(-90 174 1234)" fill="white"/>
<rect x="174" y="1112" width="12" height="47" transform="rotate(-90 174 1112)" fill="#454545"/>
<rect x="174" y="1112" width="12" height="3" transform="rotate(-90 174 1112)" fill="#211F1F"/>
<rect x="177" y="1100" width="44" height="3" fill="#211F1F"/>
<rect x="174" y="1114" width="2" height="47" transform="rotate(-90 174 1114)" fill="white"/>
<rect x="174" y="1172" width="12" height="47" transform="rotate(-90 174 1172)" fill="#454545"/>
<rect x="174" y="1172" width="12" height="3" transform="rotate(-90 174 1172)" fill="#211F1F"/>
<rect x="177" y="1160" width="44" height="3" fill="#211F1F"/>
<rect x="174" y="1174" width="2" height="47" transform="rotate(-90 174 1174)" fill="white"/>
<rect x="174" y="1052" width="12" height="47" transform="rotate(-90 174 1052)" fill="#454545"/>
<rect x="174" y="1052" width="12" height="3" transform="rotate(-90 174 1052)" fill="#211F1F"/>
<rect x="177" y="1040" width="44" height="3" fill="#211F1F"/>
<rect x="174" y="1054" width="2" height="47" transform="rotate(-90 174 1054)" fill="white"/>
<rect x="174" y="1217" width="12" height="47" transform="rotate(-90 174 1217)" fill="#454545"/>
<rect x="174" y="1217" width="12" height="3" transform="rotate(-90 174 1217)" fill="#211F1F"/>
<rect x="177" y="1205" width="44" height="3" fill="#211F1F"/>
<rect x="174" y="1219" width="2" height="47" transform="rotate(-90 174 1219)" fill="white"/>
<rect x="174" y="1097" width="12" height="47" transform="rotate(-90 174 1097)" fill="#454545"/>
<rect x="174" y="1097" width="12" height="3" transform="rotate(-90 174 1097)" fill="#211F1F"/>
<rect x="177" y="1085" width="44" height="3" fill="#211F1F"/>
<rect x="174" y="1099" width="2" height="47" transform="rotate(-90 174 1099)" fill="white"/>
<rect x="174" y="1157" width="12" height="47" transform="rotate(-90 174 1157)" fill="#454545"/>
<rect x="174" y="1157" width="12" height="3" transform="rotate(-90 174 1157)" fill="#211F1F"/>
<rect x="177" y="1145" width="44" height="3" fill="#211F1F"/>
<rect x="174" y="1159" width="2" height="47" transform="rotate(-90 174 1159)" fill="white"/>
<rect x="174" y="1037" width="12" height="47" transform="rotate(-90 174 1037)" fill="#454545"/>
<rect x="174" y="1037" width="12" height="3" transform="rotate(-90 174 1037)" fill="#211F1F"/>
<rect x="177" y="1025" width="44" height="3" fill="#211F1F"/>
<rect x="174" y="1039" width="2" height="47" transform="rotate(-90 174 1039)" fill="white"/>
<rect x="174" y="1202" width="12" height="47" transform="rotate(-90 174 1202)" fill="#454545"/>
<rect x="174" y="1202" width="12" height="3" transform="rotate(-90 174 1202)" fill="#211F1F"/>
<rect x="177" y="1190" width="44" height="3" fill="#211F1F"/>
<rect x="174" y="1204" width="2" height="47" transform="rotate(-90 174 1204)" fill="white"/>
<rect x="174" y="1082" width="12" height="47" transform="rotate(-90 174 1082)" fill="#454545"/>
<rect x="174" y="1082" width="12" height="3" transform="rotate(-90 174 1082)" fill="#211F1F"/>
<rect x="177" y="1070" width="44" height="3" fill="#211F1F"/>
<rect x="174" y="1084" width="2" height="47" transform="rotate(-90 174 1084)" fill="white"/>
<rect x="174" y="1142" width="12" height="47" transform="rotate(-90 174 1142)" fill="#454545"/>
<rect x="174" y="1142" width="12" height="3" transform="rotate(-90 174 1142)" fill="#211F1F"/>
<rect x="177" y="1130" width="44" height="3" fill="#211F1F"/>
<rect x="174" y="1144" width="2" height="47" transform="rotate(-90 174 1144)" fill="white"/>
<rect x="174" y="1022" width="12" height="47" transform="rotate(-90 174 1022)" fill="#454545"/>
<rect x="174" y="1022" width="12" height="3" transform="rotate(-90 174 1022)" fill="#211F1F"/>
<rect x="177" y="1010" width="44" height="3" fill="#211F1F"/>
<rect x="174" y="1024" width="2" height="47" transform="rotate(-90 174 1024)" fill="white"/>
<rect x="174" y="1187" width="12" height="47" transform="rotate(-90 174 1187)" fill="#454545"/>
<rect x="174" y="1187" width="12" height="3" transform="rotate(-90 174 1187)" fill="#211F1F"/>
<rect x="177" y="1175" width="44" height="3" fill="#211F1F"/>
<rect x="174" y="1189" width="2" height="47" transform="rotate(-90 174 1189)" fill="white"/>
<rect x="174" y="1067" width="12" height="47" transform="rotate(-90 174 1067)" fill="#454545"/>
<rect x="174" y="1067" width="12" height="3" transform="rotate(-90 174 1067)" fill="#211F1F"/>
<rect x="177" y="1055" width="44" height="3" fill="#211F1F"/>
<rect x="174" y="1069" width="2" height="47" transform="rotate(-90 174 1069)" fill="white"/>
<rect x="174" y="1127" width="12" height="47" transform="rotate(-90 174 1127)" fill="#454545"/>
<rect x="174" y="1127" width="12" height="3" transform="rotate(-90 174 1127)" fill="#211F1F"/>
<rect x="177" y="1115" width="44" height="3" fill="#211F1F"/>
<rect x="174" y="1129" width="2" height="47" transform="rotate(-90 174 1129)" fill="white"/>
<rect x="174" y="1007" width="12" height="47" transform="rotate(-90 174 1007)" fill="#454545"/>
<rect x="174" y="1007" width="12" height="3" transform="rotate(-90 174 1007)" fill="#211F1F"/>
<rect x="177" y="995" width="44" height="3" fill="#211F1F"/>
<rect x="174" y="1009" width="2" height="47" transform="rotate(-90 174 1009)" fill="white"/>
</svg>
