<svg width="124" height="1237" viewBox="0 0 124 1237" fill="none" xmlns="http://www.w3.org/2000/svg">
<circle cx="5" cy="355" r="4" fill="#454545"/>
<circle cx="5" cy="415" r="4" fill="#454545"/>
<circle cx="5" cy="375" r="4" fill="#454545"/>
<circle cx="5" cy="435" r="4" fill="#454545"/>
<circle cx="5" cy="395" r="4" fill="#454545"/>
<circle cx="5" cy="455" r="4" fill="#454545"/>
<line x1="24.5" y1="304" x2="24.5" y2="1063" stroke="#3D3D3D"/>
<line x1="5.5" y1="478" x2="5.50003" y2="1237" stroke="#3D3D3D"/>
<rect x="43" y="705" width="81" height="17" fill="#454545"/>
<rect x="45" y="1143" width="42" height="17" fill="#454545"/>
<rect y="237" width="12" height="47" transform="rotate(-90 0 237)" fill="#454545"/>
<rect y="237" width="12" height="3" transform="rotate(-90 0 237)" fill="#211F1F"/>
<rect x="3" y="225" width="44" height="3" fill="#211F1F"/>
<rect y="239" width="2" height="47" transform="rotate(-90 0 239)" fill="white"/>
<rect y="117" width="12" height="47" transform="rotate(-90 0 117)" fill="#454545"/>
<rect y="117" width="12" height="3" transform="rotate(-90 0 117)" fill="#211F1F"/>
<rect x="3" y="105" width="44" height="3" fill="#211F1F"/>
<rect y="119" width="2" height="47" transform="rotate(-90 0 119)" fill="white"/>
<rect y="177" width="12" height="47" transform="rotate(-90 0 177)" fill="#454545"/>
<rect y="177" width="12" height="3" transform="rotate(-90 0 177)" fill="#211F1F"/>
<rect x="3" y="165" width="44" height="3" fill="#211F1F"/>
<rect y="179" width="2" height="47" transform="rotate(-90 0 179)" fill="white"/>
<rect y="57" width="12" height="47" transform="rotate(-90 0 57)" fill="#454545"/>
<rect y="57" width="12" height="3" transform="rotate(-90 0 57)" fill="#211F1F"/>
<rect x="3" y="45" width="44" height="3" fill="#211F1F"/>
<rect y="59" width="2" height="47" transform="rotate(-90 0 59)" fill="white"/>
<rect y="222" width="12" height="47" transform="rotate(-90 0 222)" fill="#454545"/>
<rect y="222" width="12" height="3" transform="rotate(-90 0 222)" fill="#211F1F"/>
<rect x="3" y="210" width="44" height="3" fill="#211F1F"/>
<rect y="224" width="2" height="47" transform="rotate(-90 0 224)" fill="white"/>
<rect y="102" width="12" height="47" transform="rotate(-90 0 102)" fill="#454545"/>
<rect y="102" width="12" height="3" transform="rotate(-90 0 102)" fill="#211F1F"/>
<rect x="3" y="90" width="44" height="3" fill="#211F1F"/>
<rect y="104" width="2" height="47" transform="rotate(-90 0 104)" fill="white"/>
<rect y="162" width="12" height="47" transform="rotate(-90 0 162)" fill="#454545"/>
<rect y="162" width="12" height="3" transform="rotate(-90 0 162)" fill="#211F1F"/>
<rect x="3" y="150" width="44" height="3" fill="#211F1F"/>
<rect y="164" width="2" height="47" transform="rotate(-90 0 164)" fill="white"/>
<rect y="42" width="12" height="47" transform="rotate(-90 0 42)" fill="#454545"/>
<rect y="42" width="12" height="3" transform="rotate(-90 0 42)" fill="#211F1F"/>
<rect x="3" y="30" width="44" height="3" fill="#211F1F"/>
<rect y="44" width="2" height="47" transform="rotate(-90 0 44)" fill="white"/>
<rect y="207" width="12" height="47" transform="rotate(-90 0 207)" fill="#454545"/>
<rect y="207" width="12" height="3" transform="rotate(-90 0 207)" fill="#211F1F"/>
<rect x="3" y="195" width="44" height="3" fill="#211F1F"/>
<rect y="209" width="2" height="47" transform="rotate(-90 0 209)" fill="white"/>
<rect y="87" width="12" height="47" transform="rotate(-90 0 87)" fill="#454545"/>
<rect y="87" width="12" height="3" transform="rotate(-90 0 87)" fill="#211F1F"/>
<rect x="3" y="75" width="44" height="3" fill="#211F1F"/>
<rect y="89" width="2" height="47" transform="rotate(-90 0 89)" fill="white"/>
<rect y="147" width="12" height="47" transform="rotate(-90 0 147)" fill="#454545"/>
<rect y="147" width="12" height="3" transform="rotate(-90 0 147)" fill="#211F1F"/>
<rect x="3" y="135" width="44" height="3" fill="#211F1F"/>
<rect y="149" width="2" height="47" transform="rotate(-90 0 149)" fill="white"/>
<rect y="27" width="12" height="47" transform="rotate(-90 0 27)" fill="#454545"/>
<rect y="27" width="12" height="3" transform="rotate(-90 0 27)" fill="#211F1F"/>
<rect x="3" y="15" width="44" height="3" fill="#211F1F"/>
<rect y="29" width="2" height="47" transform="rotate(-90 0 29)" fill="white"/>
<rect y="192" width="12" height="47" transform="rotate(-90 0 192)" fill="#454545"/>
<rect y="192" width="12" height="3" transform="rotate(-90 0 192)" fill="#211F1F"/>
<rect x="3" y="180" width="44" height="3" fill="#211F1F"/>
<rect y="194" width="2" height="47" transform="rotate(-90 0 194)" fill="white"/>
<rect y="72" width="12" height="47" transform="rotate(-90 0 72)" fill="#454545"/>
<rect y="72" width="12" height="3" transform="rotate(-90 0 72)" fill="#211F1F"/>
<rect x="3" y="60" width="44" height="3" fill="#211F1F"/>
<rect y="74" width="2" height="47" transform="rotate(-90 0 74)" fill="white"/>
<rect y="132" width="12" height="47" transform="rotate(-90 0 132)" fill="#454545"/>
<rect y="132" width="12" height="3" transform="rotate(-90 0 132)" fill="#211F1F"/>
<rect x="3" y="120" width="44" height="3" fill="#211F1F"/>
<rect y="134" width="2" height="47" transform="rotate(-90 0 134)" fill="white"/>
<rect y="12" width="12" height="47" transform="rotate(-90 0 12)" fill="#454545"/>
<rect y="12" width="12" height="3" transform="rotate(-90 0 12)" fill="#211F1F"/>
<rect x="3" width="44" height="3" fill="#211F1F"/>
<rect y="14" width="2" height="47" transform="rotate(-90 0 14)" fill="white"/>
</svg>
