<svg width="34" height="45" viewBox="0 0 34 45" fill="none" xmlns="http://www.w3.org/2000/svg">
<g clip-path="url(#clip0_844_1770)">
<path d="M17.6608 26.7182C17.5255 26.5574 17.3741 26.454 17.2456 26.3874C17.0897 26.3071 16.9062 26.3071 16.7479 26.3874C16.6194 26.454 16.468 26.5574 16.3327 26.7182C16.1171 26.9777 16.0574 27.2487 16.0391 27.3681H17.9499C17.9315 27.2487 17.8719 26.9754 17.6563 26.7182H17.6608Z" fill="white"/>
<path d="M18.553 29.074C18.4658 28.8834 18.2938 28.5756 17.9749 28.2954C17.7409 28.091 17.5092 27.9693 17.3418 27.9004C17.2936 27.9234 17.2271 27.9486 17.1468 27.9647C17.0918 27.9762 17.0413 27.9785 16.9977 27.9785C16.9564 27.9785 16.906 27.9762 16.8486 27.9647C16.7683 27.9486 16.7018 27.9234 16.6536 27.9004C16.4862 27.9716 16.2545 28.091 16.0205 28.2954C15.7017 28.5756 15.5296 28.8834 15.4425 29.074C15.4058 29.2026 15.4035 29.2991 15.4425 29.3198C15.4516 29.3244 15.4677 29.3267 15.4929 29.3152C15.7384 29.1866 16.071 29.0442 16.4816 28.9661C16.6674 28.9293 16.8417 28.9133 16.9954 28.9064C17.1514 28.9133 17.3234 28.9293 17.5092 28.9661C17.9199 29.0442 18.2525 29.1843 18.4979 29.3152C18.5254 29.3267 18.5392 29.3244 18.5484 29.3198C18.5874 29.2991 18.5851 29.2003 18.5484 29.074H18.553Z" fill="white"/>
<path d="M17.5035 29.9292C17.2787 29.92 17.1043 29.8534 16.9965 29.8006C16.8887 29.8511 16.7144 29.9177 16.4896 29.9292C16.134 29.9453 15.8679 29.8098 15.7578 29.7432C15.822 29.8695 15.9689 30.1244 16.2602 30.3311C16.5607 30.5424 16.8543 30.5953 16.9965 30.6113C17.1387 30.5953 17.4324 30.5424 17.7328 30.3311C18.0242 30.1244 18.1733 29.8718 18.2352 29.7432C18.1228 29.8098 17.8567 29.943 17.5035 29.9292Z" fill="white"/>
<path d="M20.3613 39.5107L16.9961 41.5525L13.6333 39.5107L10.1328 42.4046L12.7823 44.2581L14.5325 42.5057L16.9961 42.5401L19.4598 42.5057L21.21 44.2581L23.8617 42.4046L20.3613 39.5107Z" fill="white"/>
<path d="M6.65976 18.2273C8.65085 14.5525 12.539 12.0513 17.0006 12.0513C21.4622 12.0513 25.3504 14.5525 27.3414 18.2273H28.1145C26.0638 14.1597 21.8545 11.3623 17.0006 11.3623C12.1467 11.3623 7.93745 14.1597 5.88672 18.2273H6.65976Z" fill="white"/>
<path d="M21.6354 35.7765L20.0641 35.1127L20.0893 31.1325L22.663 27.3566L21.0069 30.9809L22.1033 35.1403L25.1106 31.0314L26.3585 27.6368L24.4982 29.6786L23.2228 28.9391L23.2985 27.4852L24.6495 28.2133L26.3562 26.4402L25.6176 23.7852L24.7505 23.4545L22.5851 18.5027H20.3669L18.8116 16.2588H16.9948H15.1758L13.6205 18.5027H11.4024L9.23692 23.4545L8.36983 23.7852L7.6312 26.4402L9.33785 28.2133L10.689 27.4852L10.7647 28.9391L9.48925 29.6786L7.62891 27.6368L8.87678 31.0314L11.8841 35.1403L12.9805 30.9809L11.3244 27.3566L13.8981 31.1325L13.9233 35.1127L12.352 35.7765L13.7696 38.149L16.988 40.1632L20.2063 38.149L21.6239 35.7765H21.6354ZM17.5224 32.2671C17.355 32.352 17.1829 32.4347 16.9994 32.5082C16.8159 32.4347 16.6416 32.352 16.4764 32.2671C13.9807 30.9763 12.8681 28.3144 12.3635 26.5803C12.1662 25.8638 12.2763 25.2253 12.6479 24.9864C12.719 24.9405 12.8154 24.8991 12.9507 24.8853C13.1686 25.0048 13.7031 25.2551 14.4119 25.2046C14.9556 25.1655 15.3593 24.9657 15.5681 24.8394L15.8273 25.1701C15.8273 25.1701 15.8296 25.1495 15.8318 25.1403C15.9167 24.4053 15.6093 23.6887 15.0336 23.296C14.3064 22.7999 13.265 22.8941 12.5676 23.5647C12.5631 23.5693 12.5126 23.6038 12.4507 23.5831C12.3818 23.5601 12.3658 23.4912 12.3635 23.4866C12.4117 23.0388 12.4598 22.5909 12.508 22.143C12.9071 21.7526 13.5013 21.2542 14.3133 20.8339C15.3822 20.2804 16.364 20.0989 16.9994 20.0346C17.6348 20.0989 18.6189 20.2804 19.6879 20.8339C20.4999 21.2542 21.094 21.7526 21.4932 22.143C21.5413 22.5909 21.5895 23.0388 21.6377 23.4866C21.6377 23.4912 21.6193 23.5601 21.5505 23.5831C21.4886 23.6038 21.4381 23.567 21.4335 23.5647C20.7362 22.8964 19.6948 22.7999 18.9676 23.296C18.3895 23.6887 18.0844 24.4053 18.1693 25.1403C18.1693 25.1495 18.1716 25.1609 18.1739 25.1701L18.4331 24.8394C18.6442 24.9634 19.0456 25.1632 19.5892 25.2046C20.298 25.2551 20.8325 25.0048 21.0504 24.8853C21.1858 24.8991 21.2844 24.9428 21.3532 24.9864C21.7248 25.2253 21.835 25.8638 21.6377 26.5803C21.133 28.3144 20.0205 30.9763 17.5247 32.2671H17.5224Z" fill="white"/>
<path d="M31.6722 36.0935L26.7014 33.133L27.3643 29.5088L20.9414 38.7991L27.7726 43.8772L32.4613 40.1657L31.6722 36.0935Z" fill="white"/>
<path d="M28.1797 44.1316L29.5033 44.9997L32.8936 42.3447L32.6642 40.9414L28.1797 44.1316Z" fill="white"/>
<path d="M22.5574 17.6343L27.9342 8.47266L19.8047 16.254L20.8484 17.6343H22.5574Z" fill="white"/>
<path d="M25.5866 21.2582L33.9983 12.0713L24.1094 18.2977L25.5866 21.2582Z" fill="white"/>
<path d="M7.29901 33.133L2.33045 36.0935L1.53906 40.1657L6.23006 43.8772L13.0613 38.7991L6.63837 29.5088L7.29901 33.133Z" fill="white"/>
<path d="M1.10156 42.3447L4.49193 44.9997L5.8178 44.1316L1.33095 40.9414L1.10156 42.3447Z" fill="white"/>
<path d="M16.9973 15.2595V15.2618H19.1398L16.9996 0.0206707V0V0.00918696L16.9973 0V0.0206707L14.8594 15.2595H16.9973Z" fill="white"/>
<path d="M13.1522 17.6343L14.1982 16.254L6.06641 8.47266L11.4456 17.6343H13.1522Z" fill="white"/>
<path d="M9.88895 18.2977L0 12.0713L8.41168 21.2582L9.88895 18.2977Z" fill="white"/>
</g>
<defs>
<clipPath id="clip0_844_1770">
<rect width="34" height="45" fill="white"/>
</clipPath>
</defs>
</svg>
