<svg width="46" height="41" viewBox="0 0 46 41" fill="none" xmlns="http://www.w3.org/2000/svg">
<path d="M25.0845 3.16522L43.6982 35.5488C43.8506 35.8151 43.9478 36.1089 43.984 36.413C44.0202 36.7171 43.9948 37.0253 43.9091 37.3194C43.8235 37.6136 43.6793 37.8878 43.4852 38.126C43.2911 38.3641 43.0509 38.5614 42.7788 38.7062C42.4209 38.8997 42.0197 39.0008 41.6121 39H33.5011L23.0007 20.4951L17.1672 29.7475H20.6673L25.3342 39H4.38708C3.0687 39 2 37.9591 2 36.6869C2 36.2913 2.105 35.9004 2.30334 35.5535L20.917 3.18604C21.1295 2.82511 21.4337 2.52569 21.7993 2.3176C22.1649 2.1095 22.5792 2 23.0007 2C23.4223 2 23.8365 2.1095 24.2021 2.3176C24.5677 2.52569 24.872 2.82511 25.0845 3.18604V3.16522Z" stroke="black" stroke-width="3.51" stroke-linecap="round" stroke-linejoin="round"/>
</svg>
