<svg width="371" height="553" viewBox="0 0 371 553" fill="none" xmlns="http://www.w3.org/2000/svg">
<g clip-path="url(#clip0_887_117)">
<path d="M130.906 396.404L150.444 392.302L168.291 376.337L186.625 408.083L201.486 426.782L190.745 436.051L141.531 421.291L130.906 396.404Z" fill="#1E1E1B"/>
<path d="M192.178 269.56C190.813 267.938 189.285 266.895 187.989 266.223C186.414 265.412 184.563 265.412 182.965 266.223C181.669 266.895 180.141 267.938 178.776 269.56C176.6 272.179 175.998 274.913 175.812 276.118H195.095C194.91 274.913 194.308 272.156 192.132 269.56H192.178Z" fill="#242424"/>
<path d="M201.184 293.334C200.304 291.411 198.568 288.306 195.35 285.479C192.989 283.416 190.651 282.188 188.961 281.493C188.475 281.725 187.804 281.98 186.994 282.142C186.438 282.258 185.929 282.281 185.489 282.281C185.072 282.281 184.563 282.258 183.984 282.142C183.174 281.98 182.503 281.725 182.017 281.493C180.327 282.211 177.989 283.416 175.628 285.479C172.41 288.306 170.674 291.411 169.794 293.334C169.424 294.632 169.401 295.605 169.794 295.813C169.887 295.86 170.049 295.883 170.304 295.767C172.78 294.469 176.137 293.033 180.281 292.245C182.156 291.874 183.915 291.712 185.466 291.642C187.04 291.712 188.776 291.874 190.651 292.245C194.795 293.033 198.151 294.446 200.628 295.767C200.906 295.883 201.045 295.86 201.137 295.813C201.531 295.605 201.508 294.609 201.137 293.334H201.184Z" fill="#242424"/>
<path d="M190.604 301.954C188.336 301.861 186.576 301.189 185.488 300.656C184.4 301.166 182.641 301.838 180.373 301.954C176.785 302.116 174.099 300.749 172.988 300.077C173.636 301.352 175.118 303.924 178.058 306.009C181.09 308.141 184.053 308.674 185.488 308.836C186.924 308.674 189.887 308.141 192.919 306.009C195.859 303.924 197.364 301.375 197.989 300.077C196.854 300.749 194.169 302.093 190.604 301.954Z" fill="#242424"/>
<path d="M189.494 420.341L189.216 419.831C188.522 420.318 187.48 421.152 189.494 420.341Z" fill="#211F1F"/>
<path d="M279.98 278.806L261.206 299.406L248.336 291.944L249.1 277.277L262.734 284.622L279.956 266.733L272.503 239.946L263.753 236.61L241.9 186.651H219.516L203.821 164.012H185.488H167.131L151.436 186.651H129.052L107.2 236.61L98.4496 239.946L90.9958 266.733L108.218 284.622L121.853 277.277L122.617 291.944L109.746 299.406L90.9727 278.806L103.565 313.054L133.913 354.509L144.978 312.544L128.265 275.979L154.237 314.074L154.492 354.231L149.7 360.719L152.964 384.864L174.214 377.38C186.622 379.952 182.27 405.742 182.27 405.742L185.002 411.744L189.168 419.784C189.423 419.599 189.654 419.46 189.654 419.46L210.419 414.154L211.807 408.5L221.206 430.026L257.202 362.573L272.526 346.538L260.859 321.859L267.341 313.031L279.933 278.783L279.98 278.806ZM185.511 327.977C183.659 327.235 181.9 326.401 180.233 325.544C155.048 312.521 143.821 285.665 138.728 268.17C136.737 260.94 137.848 254.498 141.598 252.089C142.316 251.625 143.288 251.208 144.654 251.069C146.853 252.274 152.247 254.8 159.399 254.29C164.886 253.896 168.96 251.88 171.066 250.606L173.682 253.942C173.682 253.942 173.705 253.734 173.728 253.641C174.585 246.226 171.483 238.996 165.673 235.034C158.335 230.029 147.825 230.979 140.788 237.745C140.742 237.791 140.233 238.139 139.608 237.93C138.913 237.699 138.751 237.004 138.728 236.957C139.214 232.439 139.7 227.92 140.186 223.402C144.214 219.462 150.21 214.434 158.404 210.194C169.191 204.609 179.099 202.778 185.511 202.13C191.923 202.778 201.854 204.609 212.641 210.194C220.835 214.434 226.831 219.462 230.859 223.402C231.345 227.92 231.831 232.439 232.317 236.957C232.317 237.004 232.132 237.699 231.437 237.93C230.812 238.139 230.303 237.768 230.257 237.745C223.22 231.002 212.71 230.029 205.372 235.034C199.539 238.996 196.46 246.226 197.317 253.641C197.317 253.734 197.34 253.85 197.363 253.942L199.979 250.606C202.108 251.857 206.159 253.873 211.645 254.29C218.798 254.8 224.192 252.274 226.391 251.069C227.757 251.208 228.752 251.648 229.447 252.089C233.197 254.498 234.308 260.94 232.317 268.17C227.224 285.665 215.997 312.521 190.812 325.544C189.122 326.401 187.386 327.235 185.534 327.977H185.511ZM240.627 279.014L242.688 275.979L240.975 279.733L240.627 278.991V279.014Z" fill="#211F1F"/>
<path d="M333.57 364.148L283.43 334.279L290.097 297.714L244.749 358.818L239.98 402.475L279.981 389.938L324.495 407.827L294.217 442.678L343.709 416.378L333.57 364.148Z" fill="#282222"/>
<path d="M87.6179 334.279L37.4553 364.148L29.4922 405.232L76.8076 442.678L100.442 426.666L104.817 402.984L145.813 393.461L80.928 297.714L87.6179 334.279Z" fill="#211F1F"/>
<path d="M25.1172 427.223L59.3306 454.009L53.4509 435.217L27.432 413.064L25.1172 427.223Z" fill="#211F1F"/>
<path d="M81.1604 183.893C101.253 146.818 140.49 121.583 185.514 121.583C230.537 121.583 269.774 146.818 289.867 183.893H297.668C276.973 142.855 234.496 114.632 185.514 114.632C136.531 114.632 94.0541 142.855 73.3594 183.893H81.1604Z" fill="#4145F8"/>
<path d="M241.583 177.915L295.866 85.4814L213.805 163.988L224.36 177.915H241.583Z" fill="#4145F8"/>
<path d="M272.181 214.48L357.066 121.792L257.273 184.611L272.181 214.48Z" fill="#4145F8"/>
<path d="M185.512 153.955V153.978H207.109L185.535 0.208548V0L185.512 0.092688V0V0.208548L163.914 153.955H185.512Z" fill="#4145F8"/>
<path d="M146.693 177.915L157.226 163.988L75.1875 85.4814L129.447 177.915H146.693Z" fill="#4145F8"/>
<path d="M113.754 184.611L13.9609 121.792L98.8463 214.48L113.754 184.611Z" fill="#4145F8"/>
<path d="M226.832 503.088L247.411 482.488L241.763 471.667L226.832 503.088Z" fill="#4145F8"/>
<path d="M370.998 401.061L353.66 388.688L296.09 468.839L277.964 487.794L261.969 494.306L269.77 496.97L295.58 505.544L338.868 544.079L337.826 515.253L307.664 488.906L370.998 401.061Z" fill="#4145F8"/>
<path d="M129.678 468.492L105.627 404.468L150.812 433.039L131.229 431.857L139.446 453.338L188.081 457.3L195.998 466.291L227.85 468.538L256.184 391.607L266.832 358.749L246.971 352.169L224.17 421.407L224.957 322.902L204.169 322.647L203.22 408.268L154.377 322.647L145.835 393.484L164.377 404.723L165.697 381.875L191.183 434.638L88.0107 366.697L72.3623 376.337L92.5477 429.563L0.0234375 421.824L15.556 443.86L29.5377 444.926L104.33 544.056L117.432 497.503L124.215 494.329L129.724 468.469L129.678 468.492ZM90.6264 494.074L57.663 447.058L100.557 450.673L90.6264 494.074Z" fill="#4145F8"/>
<path d="M326.115 394.202C317.828 383.126 303.476 377.356 289.24 377.148C275.999 376.962 258.499 381.875 250.836 393.6C247.156 399.231 242.781 407.225 239.586 417.49C237.873 423.005 236.67 428.659 235.998 434.406C235.35 439.851 234.679 444.74 236.137 450.093C237.433 454.843 239.424 459.385 241.994 463.556C252.966 481.468 272.665 489.601 293.152 489.045L304.194 469.928C297.295 469.766 282.642 468.608 274.633 461.262C270.536 457.508 268.151 453.43 266.739 450.418C285.304 447.614 302.805 444.509 320.629 441.496L333.291 419.599C334.726 417.119 332.874 410.168 332.319 407.619C331.161 402.498 329.032 398.026 326.138 394.179L326.115 394.202ZM262.387 427.083C262.156 425.647 260.651 415.011 268.383 406.252C275.605 398.072 285.42 397.748 286.994 397.724C289.332 397.562 294.957 397.469 300.559 400.876C310.351 406.831 311.485 418.185 311.601 419.506L262.411 427.083H262.387Z" fill="#4145F8"/>
<path d="M149.634 476.44L179.588 497.62L194.658 484.458L197.065 482.488L198.014 484.273L209.403 509.322L211.348 479.453L220.977 491.363L218.477 522.715L230.885 524.267L242.945 497.249L251.996 493.032L239.311 532.818L218.13 530.848L221.579 547.88L208.477 529.481L193.755 528.23L188.454 518.637L204.357 520.027L195.074 498.153L190.861 501.466L192.667 507.19L171 515.786L187.852 530.385L122.828 553.001L167.088 527.373L155.653 512.612L176.718 504.177L158.06 494.839L145.12 526.168L141.185 515.786L149.333 491.827L149.634 476.44Z" fill="#4145F8"/>
<path d="M262.111 351.195C269.986 351.195 276.37 344.805 276.37 336.921C276.37 329.038 269.986 322.647 262.111 322.647C254.236 322.647 247.852 329.038 247.852 336.921C247.852 344.805 254.236 351.195 262.111 351.195Z" fill="#4145F8"/>
<path d="M353.662 388.688L341.949 378.979L345.653 399.856L353.662 388.688Z" fill="white"/>
<path d="M239.979 268.935L233.266 280.613L239.979 288.677L245.118 279.756L246.321 269.63L239.979 268.935Z" fill="#211F1F"/>
<path d="M145.81 393.461L164.352 404.723L165.671 381.875L191.158 434.638L133.102 396.427L145.81 393.461Z" fill="#211F1F"/>
<path d="M242.687 277.972L216.715 316.066L225.974 314.537L242.687 277.972Z" fill="white"/>
<path d="M224.909 322.902L225.974 314.537L216.715 316.066V322.809" fill="white"/>
</g>
<defs>
<clipPath id="clip0_887_117">
<rect width="371" height="553" fill="white"/>
</clipPath>
</defs>
</svg>
