<svg width="29" height="41" viewBox="0 0 29 41" fill="none" xmlns="http://www.w3.org/2000/svg">
<path d="M20.9297 14.3333C22.5873 14.3333 24.177 14.983 25.3491 16.1395C26.5212 17.296 27.1797 18.8645 27.1797 20.5C27.1797 22.1355 26.5212 23.704 25.3491 24.8605C24.177 26.017 22.5873 26.6667 20.9297 26.6667C19.2721 26.6667 17.6824 26.017 16.5103 24.8605C15.3382 23.704 14.6797 22.1355 14.6797 20.5C14.6797 18.8645 15.3382 17.296 16.5103 16.1395C17.6824 14.983 19.2721 14.3333 20.9297 14.3333ZM20.9297 14.3333C22.5873 14.3333 24.177 13.6836 25.3491 12.5272C26.5212 11.3707 27.1797 9.80217 27.1797 8.16667C27.1797 6.53116 26.5212 4.96265 25.3491 3.80617C24.177 2.6497 22.5873 2 20.9297 2H8.42969C6.77208 2 5.18237 2.6497 4.01027 3.80617C2.83817 4.96265 2.17969 6.53116 2.17969 8.16667C2.17969 9.80217 2.83817 11.3707 4.01027 12.5272C5.18237 13.6836 6.77208 14.3333 8.42969 14.3333M20.9297 14.3333H8.42969M8.42969 14.3333C6.77208 14.3333 5.18237 14.983 4.01027 16.1395C2.83817 17.296 2.17969 18.8645 2.17969 20.5C2.17969 22.1355 2.83817 23.704 4.01027 24.8605C5.18237 26.017 6.77209 26.6667 8.42969 26.6667M8.42969 26.6667H14.6797M8.42969 26.6667C7.19356 26.6667 5.98518 27.0283 4.95738 27.7059C3.92957 28.3835 3.12849 29.3466 2.65544 30.4734C2.1824 31.6003 2.05862 32.8402 2.29978 34.0364C2.54094 35.2326 3.13619 36.3314 4.01027 37.1938C4.88435 38.0562 5.99799 38.6436 7.21038 38.8815C8.42276 39.1194 9.67942 38.9973 10.8215 38.5306C11.9635 38.0638 12.9396 37.2734 13.6264 36.2593C14.3131 35.2452 14.6797 34.053 14.6797 32.8333V2" stroke="#21221D" stroke-width="3.50576" stroke-linecap="round" stroke-linejoin="round"/>
</svg>
