<svg width="377" height="626" viewBox="0 0 377 626" fill="none" xmlns="http://www.w3.org/2000/svg">
<rect x="0.5" y="0.5" width="376" height="625" rx="18.5" fill="white" stroke="black"/>
<rect x="20.5" y="58.5" width="335" height="545" stroke="black"/>
<line x1="43.3047" y1="3" x2="43.3047" y2="36.6536" stroke="black"/>
<line y1="36.5" x2="377" y2="36.5" stroke="black"/>
<ellipse cx="23.0608" cy="18.0367" rx="8.17021" ry="8.59241" fill="#363636"/>
<path d="M56.987 11.2089H58.838V17.3988L60.7288 15.508H63.8537L65.8042 17.4586V25.4199H63.9532V18.0158L63.0575 17.1202H61.1269L58.838 19.4091V25.4199H56.987V11.2089ZM69.1949 23.5291V17.1003H67.4036V15.508H69.2347V12.2837H71.046V15.508H74.131V17.1202H71.046V22.932L71.9416 23.8077H74.131V25.4199H71.1057L69.1949 23.5291ZM77.1252 23.5291V17.1003H75.3339V15.508H77.165V12.2837H78.9762V15.508H82.0613V17.1202H78.9762V22.932L79.8719 23.8077H82.0613V25.4199H79.0359L77.1252 23.5291ZM84.1598 15.508H85.9312V17.1799L87.5832 15.508H91.3649L93.2557 17.4187V23.5092L91.3649 25.4199H87.5235L86.0108 24.1063V29.6394H84.1598V15.508ZM90.509 23.8077L91.4047 22.9121V18.0158L90.509 17.1202H87.9614L86.0108 19.0906V22.1757L87.8221 23.8077H90.509ZM95.3438 23.6883V22.4543H97.1949V23.1907L97.8716 23.8476H101.375L102.051 23.1907V21.8771L101.375 21.1805H97.0953L95.4234 19.5086V17.2396L97.1351 15.508H101.972L103.703 17.2396V18.4736H101.852V17.7372L101.176 17.0804H97.9512L97.2745 17.7372V18.9712L97.9512 19.6678H102.191L103.902 21.3795V23.6883L102.191 25.4199H97.0754L95.3438 23.6883ZM105.744 17.9362V16.9411L106.401 16.2843H107.456L108.113 16.961V17.9362L107.456 18.593H106.401L105.744 17.9362ZM105.744 24.7631V23.7679L106.401 23.1111H107.456L108.113 23.7679V24.7631L107.456 25.4199H106.401L105.744 24.7631ZM116.767 11.4676H118.698L110.995 25.4199H109.065L116.767 11.4676ZM126.408 11.4676H128.339L120.636 25.4199H118.705L126.408 11.4676Z" fill="black"/>
<rect x="20" y="58" width="336" height="546" fill="#2A6BEC"/>
<path d="M123.907 329.98C123.77 329.843 123.515 329.657 123.143 329.421C122.79 329.186 122.349 328.961 121.82 328.745C121.31 328.53 120.751 328.343 120.144 328.187C119.536 328.01 118.919 327.922 118.292 327.922C117.194 327.922 116.361 328.128 115.793 328.539C115.244 328.951 114.969 329.529 114.969 330.274C114.969 330.842 115.146 331.293 115.499 331.626C115.851 331.96 116.381 332.244 117.086 332.479C117.792 332.714 118.674 332.969 119.732 333.243C121.104 333.577 122.29 333.988 123.29 334.478C124.309 334.949 125.083 335.576 125.612 336.36C126.161 337.124 126.435 338.143 126.435 339.417C126.435 340.535 126.23 341.495 125.818 342.299C125.406 343.083 124.838 343.72 124.113 344.21C123.388 344.7 122.564 345.062 121.643 345.298C120.722 345.513 119.742 345.621 118.703 345.621C117.664 345.621 116.626 345.513 115.587 345.298C114.548 345.082 113.548 344.778 112.588 344.386C111.628 343.975 110.746 343.485 109.942 342.916L111.735 339.417C111.912 339.594 112.225 339.829 112.676 340.123C113.127 340.397 113.676 340.682 114.323 340.976C114.969 341.25 115.675 341.485 116.439 341.681C117.204 341.877 117.978 341.975 118.762 341.975C119.86 341.975 120.693 341.789 121.261 341.417C121.829 341.044 122.114 340.515 122.114 339.829C122.114 339.202 121.888 338.712 121.437 338.359C120.987 338.006 120.359 337.702 119.556 337.448C118.752 337.173 117.802 336.879 116.704 336.566C115.391 336.193 114.293 335.782 113.411 335.331C112.529 334.86 111.873 334.272 111.441 333.567C111.01 332.861 110.795 331.979 110.795 330.921C110.795 329.49 111.128 328.294 111.794 327.334C112.48 326.354 113.401 325.619 114.558 325.129C115.714 324.619 116.998 324.365 118.409 324.365C119.389 324.365 120.31 324.472 121.173 324.688C122.055 324.904 122.878 325.188 123.642 325.541C124.407 325.893 125.093 326.276 125.7 326.687L123.907 329.98ZM153.406 345.386H149.466V336.742C149.466 335.527 149.251 334.635 148.819 334.067C148.408 333.479 147.83 333.185 147.085 333.185C146.32 333.185 145.585 333.488 144.88 334.096C144.194 334.684 143.704 335.458 143.41 336.419V345.386H139.47V336.742C139.47 335.507 139.255 334.606 138.823 334.037C138.412 333.469 137.834 333.185 137.089 333.185C136.324 333.185 135.589 333.479 134.884 334.067C134.198 334.655 133.708 335.429 133.414 336.389V345.386H129.474V329.98H133.031V332.832C133.619 331.832 134.403 331.068 135.384 330.539C136.364 329.99 137.491 329.715 138.765 329.715C140.039 329.715 141.028 330.029 141.734 330.656C142.459 331.283 142.92 332.058 143.116 332.979C143.743 331.92 144.537 331.117 145.497 330.568C146.477 330 147.575 329.715 148.79 329.715C149.75 329.715 150.525 329.892 151.113 330.245C151.72 330.578 152.191 331.038 152.524 331.626C152.857 332.195 153.082 332.842 153.2 333.567C153.337 334.292 153.406 335.027 153.406 335.772V345.386ZM156.218 340.829C156.218 339.829 156.493 338.957 157.042 338.212C157.61 337.448 158.394 336.86 159.394 336.448C160.393 336.036 161.54 335.831 162.833 335.831C163.48 335.831 164.137 335.88 164.803 335.978C165.47 336.076 166.048 336.232 166.538 336.448V335.625C166.538 334.645 166.244 333.89 165.656 333.361C165.088 332.832 164.235 332.567 163.098 332.567C162.255 332.567 161.452 332.714 160.687 333.008C159.923 333.302 159.119 333.733 158.276 334.302L157.012 331.715C158.031 331.048 159.07 330.548 160.129 330.215C161.207 329.882 162.334 329.715 163.51 329.715C165.705 329.715 167.41 330.264 168.625 331.362C169.86 332.459 170.478 334.027 170.478 336.066V340.976C170.478 341.387 170.546 341.681 170.683 341.858C170.84 342.034 171.085 342.142 171.418 342.181V345.386C171.066 345.445 170.742 345.494 170.448 345.533C170.174 345.572 169.939 345.592 169.743 345.592C168.959 345.592 168.361 345.415 167.949 345.062C167.557 344.71 167.312 344.278 167.214 343.769L167.126 342.975C166.46 343.837 165.627 344.504 164.627 344.974C163.627 345.445 162.608 345.68 161.569 345.68C160.55 345.68 159.629 345.474 158.806 345.062C158.002 344.631 157.365 344.053 156.895 343.328C156.444 342.583 156.218 341.75 156.218 340.829ZM165.803 341.623C166.019 341.387 166.195 341.152 166.332 340.917C166.469 340.682 166.538 340.466 166.538 340.27V338.712C166.068 338.516 165.558 338.369 165.009 338.271C164.46 338.153 163.941 338.094 163.451 338.094C162.432 338.094 161.589 338.32 160.922 338.771C160.276 339.202 159.952 339.78 159.952 340.505C159.952 340.897 160.06 341.27 160.276 341.623C160.491 341.975 160.805 342.26 161.216 342.475C161.628 342.691 162.118 342.799 162.686 342.799C163.274 342.799 163.853 342.691 164.421 342.475C164.99 342.24 165.45 341.956 165.803 341.623ZM183.773 333.39C182.577 333.39 181.509 333.626 180.568 334.096C179.627 334.547 178.951 335.203 178.54 336.066V345.386H174.6V329.98H178.216V333.273C178.765 332.214 179.461 331.381 180.304 330.774C181.146 330.166 182.038 329.833 182.979 329.774C183.195 329.774 183.361 329.774 183.479 329.774C183.597 329.774 183.695 329.784 183.773 329.804V333.39ZM195.642 344.592C195.309 344.729 194.907 344.886 194.437 345.062C193.967 345.239 193.457 345.376 192.908 345.474C192.379 345.592 191.84 345.65 191.291 345.65C190.566 345.65 189.899 345.523 189.292 345.268C188.684 345.013 188.194 344.612 187.822 344.063C187.469 343.494 187.293 342.759 187.293 341.858V333.008H185.264V329.98H187.293V324.982H191.232V329.98H194.466V333.008H191.232V340.535C191.252 341.064 191.399 341.446 191.673 341.681C191.948 341.917 192.291 342.034 192.702 342.034C193.114 342.034 193.516 341.966 193.908 341.828C194.3 341.691 194.613 341.574 194.849 341.476L195.642 344.592ZM216.246 343.034V345.386H202.075V324.512H215.981V326.864H204.721V333.626H214.511V335.831H204.721V343.034H216.246ZM218.7 340.946C218.7 339.966 218.974 339.123 219.523 338.418C220.091 337.693 220.866 337.134 221.846 336.742C222.826 336.35 223.962 336.154 225.256 336.154C225.942 336.154 226.667 336.213 227.432 336.33C228.196 336.428 228.872 336.585 229.46 336.801V335.684C229.46 334.508 229.107 333.586 228.402 332.92C227.696 332.234 226.697 331.891 225.403 331.891C224.56 331.891 223.747 332.048 222.963 332.361C222.198 332.655 221.385 333.087 220.523 333.655L219.582 331.832C220.581 331.146 221.581 330.637 222.581 330.303C223.58 329.951 224.619 329.774 225.697 329.774C227.657 329.774 229.205 330.323 230.342 331.421C231.479 332.499 232.047 334.008 232.047 335.948V342.446C232.047 342.759 232.106 342.995 232.224 343.151C232.361 343.289 232.577 343.367 232.871 343.387V345.386C232.616 345.425 232.39 345.454 232.194 345.474C232.018 345.494 231.871 345.503 231.753 345.503C231.146 345.503 230.685 345.337 230.372 345.004C230.078 344.67 229.911 344.318 229.872 343.945L229.813 342.975C229.147 343.837 228.274 344.504 227.196 344.974C226.118 345.445 225.05 345.68 223.992 345.68C222.973 345.68 222.061 345.474 221.258 345.062C220.454 344.631 219.827 344.063 219.376 343.357C218.925 342.632 218.7 341.828 218.7 340.946ZM228.696 342.034C228.931 341.76 229.117 341.485 229.254 341.211C229.392 340.917 229.46 340.672 229.46 340.476V338.565C228.853 338.33 228.216 338.153 227.549 338.036C226.883 337.898 226.226 337.83 225.579 337.83C224.266 337.83 223.198 338.094 222.375 338.624C221.571 339.133 221.169 339.839 221.169 340.74C221.169 341.231 221.297 341.711 221.552 342.181C221.826 342.632 222.218 343.004 222.728 343.298C223.257 343.592 223.904 343.739 224.668 343.739C225.472 343.739 226.236 343.583 226.961 343.269C227.686 342.936 228.265 342.524 228.696 342.034ZM241.888 345.68C240.614 345.68 239.418 345.474 238.301 345.062C237.184 344.631 236.224 343.994 235.42 343.151L236.42 341.329C237.302 342.152 238.184 342.74 239.066 343.093C239.948 343.445 240.849 343.622 241.77 343.622C242.829 343.622 243.691 343.426 244.358 343.034C245.024 342.622 245.357 342.024 245.357 341.24C245.357 340.672 245.181 340.25 244.828 339.976C244.495 339.702 244.015 339.476 243.387 339.3C242.76 339.104 242.015 338.888 241.153 338.653C240.095 338.339 239.203 338.006 238.478 337.653C237.752 337.301 237.204 336.86 236.831 336.33C236.459 335.801 236.273 335.135 236.273 334.331C236.273 333.351 236.527 332.528 237.037 331.862C237.547 331.176 238.242 330.656 239.124 330.303C240.026 329.951 241.045 329.774 242.182 329.774C243.319 329.774 244.348 329.951 245.269 330.303C246.19 330.656 246.984 331.176 247.651 331.862L246.474 333.655C245.867 333.028 245.2 332.567 244.475 332.273C243.75 331.96 242.937 331.803 242.035 331.803C241.506 331.803 240.986 331.871 240.477 332.009C239.967 332.126 239.546 332.352 239.213 332.685C238.879 332.998 238.713 333.449 238.713 334.037C238.713 334.527 238.84 334.919 239.095 335.213C239.369 335.488 239.761 335.723 240.271 335.919C240.8 336.115 241.437 336.33 242.182 336.566C243.338 336.899 244.338 337.232 245.181 337.565C246.043 337.898 246.71 338.33 247.18 338.859C247.651 339.388 247.886 340.123 247.886 341.064C247.886 342.514 247.337 343.651 246.239 344.474C245.142 345.278 243.691 345.68 241.888 345.68ZM258.213 345.68C257.057 345.68 255.999 345.474 255.038 345.062C254.097 344.631 253.274 344.053 252.569 343.328C251.883 342.583 251.344 341.73 250.952 340.77C250.579 339.809 250.393 338.79 250.393 337.712C250.393 336.262 250.726 334.939 251.393 333.743C252.059 332.548 252.98 331.587 254.156 330.862C255.352 330.137 256.714 329.774 258.243 329.774C259.791 329.774 261.134 330.147 262.271 330.891C263.427 331.617 264.319 332.577 264.946 333.773C265.593 334.949 265.916 336.223 265.916 337.595C265.916 337.791 265.907 337.987 265.887 338.183C265.887 338.359 265.877 338.496 265.858 338.594H253.127C253.206 339.594 253.48 340.486 253.95 341.27C254.44 342.034 255.068 342.642 255.832 343.093C256.596 343.524 257.42 343.739 258.302 343.739C259.242 343.739 260.124 343.504 260.948 343.034C261.791 342.563 262.369 341.946 262.682 341.182L264.917 341.799C264.584 342.544 264.084 343.21 263.417 343.798C262.771 344.386 261.996 344.847 261.095 345.18C260.213 345.513 259.252 345.68 258.213 345.68ZM253.039 336.801H263.506C263.427 335.801 263.143 334.919 262.653 334.155C262.163 333.39 261.536 332.793 260.771 332.361C260.007 331.93 259.164 331.715 258.243 331.715C257.341 331.715 256.508 331.93 255.744 332.361C254.979 332.793 254.352 333.39 253.862 334.155C253.392 334.919 253.117 335.801 253.039 336.801Z" fill="white"/>
<path d="M179.461 200.136L132.034 240.079C129.974 241.813 128.787 244.362 128.787 247.051V305.325C128.787 310.364 132.872 314.449 137.912 314.449H173.898C178.763 314.449 182.813 310.643 183.011 305.779C183.337 297.457 185.641 284.806 195.255 273.586C207.266 259.585 223.362 256.35 233.173 255.814C238.015 255.547 241.809 251.566 241.809 246.713V246.562C241.809 243.85 240.61 241.29 238.527 239.555L191.17 200.112C187.771 197.284 182.836 197.296 179.461 200.147V200.136ZM180.869 268.105C172.466 278.963 169.115 290.008 167.683 297.038C167.346 298.726 165.856 299.924 164.133 299.924H144.662C142.66 299.924 141.031 298.295 141.031 296.293V252.556C141.031 250.449 141.974 248.459 143.603 247.12L180.253 216.988C181.964 215.592 184.419 215.58 186.13 216.988C195.581 224.693 205.019 232.409 214.47 240.114C216.099 241.441 215.657 244.059 213.667 244.746C205.532 247.574 191.786 254.01 180.858 268.116L180.869 268.105Z" fill="white"/>
<path d="M203.202 314.449H204.668C208.171 314.449 211.023 311.655 211.127 308.152C211.279 303.322 212.675 296.572 218.273 290.916C223.918 285.213 230.727 283.758 235.568 283.572C239.048 283.432 241.807 280.592 241.807 277.112V276.239C241.807 272.794 239.118 269.955 235.673 269.78C228.55 269.431 216.563 270.595 206.972 280.313C197.673 289.74 196.44 301.297 196.731 308.28C196.87 311.737 199.733 314.449 203.19 314.449H203.202Z" fill="white"/>
<path d="M234.439 314.45C240.436 314.45 245.298 309.588 245.298 303.591C245.298 297.594 240.436 292.732 234.439 292.732C228.442 292.732 223.58 297.594 223.58 303.591C223.58 309.588 228.442 314.45 234.439 314.45Z" fill="white"/>
</svg>
