<svg width="330" height="395" viewBox="0 0 330 395" fill="none" xmlns="http://www.w3.org/2000/svg">
<rect x="0.5" y="0.5" width="329" height="394" rx="18.5" fill="white" stroke="black"/>
<rect x="21.5" y="58.5" width="287" height="314" stroke="black"/>
<line x1="43.3047" y1="3" x2="43.3047" y2="36.6536" stroke="black"/>
<line y1="36.5" x2="330" y2="36.5" stroke="black"/>
<ellipse cx="23.0608" cy="18.0367" rx="8.17021" ry="8.59241" fill="#363636"/>
<path d="M56.987 11.2089H58.838V17.3988L60.7288 15.508H63.8537L65.8042 17.4586V25.4199H63.9532V18.0158L63.0575 17.1202H61.1269L58.838 19.4091V25.4199H56.987V11.2089ZM69.1949 23.5291V17.1003H67.4036V15.508H69.2347V12.2837H71.046V15.508H74.131V17.1202H71.046V22.932L71.9416 23.8077H74.131V25.4199H71.1057L69.1949 23.5291ZM77.1252 23.5291V17.1003H75.3339V15.508H77.165V12.2837H78.9762V15.508H82.0613V17.1202H78.9762V22.932L79.8719 23.8077H82.0613V25.4199H79.0359L77.1252 23.5291ZM84.1598 15.508H85.9312V17.1799L87.5832 15.508H91.3649L93.2557 17.4187V23.5092L91.3649 25.4199H87.5235L86.0108 24.1063V29.6394H84.1598V15.508ZM90.509 23.8077L91.4047 22.9121V18.0158L90.509 17.1202H87.9614L86.0108 19.0906V22.1757L87.8221 23.8077H90.509ZM95.3438 23.6883V22.4543H97.1949V23.1907L97.8716 23.8476H101.375L102.051 23.1907V21.8771L101.375 21.1805H97.0953L95.4234 19.5086V17.2396L97.1351 15.508H101.972L103.703 17.2396V18.4736H101.852V17.7372L101.176 17.0804H97.9512L97.2745 17.7372V18.9712L97.9512 19.6678H102.191L103.902 21.3795V23.6883L102.191 25.4199H97.0754L95.3438 23.6883ZM105.744 17.9362V16.9411L106.401 16.2843H107.456L108.113 16.961V17.9362L107.456 18.593H106.401L105.744 17.9362ZM105.744 24.7631V23.7679L106.401 23.1111H107.456L108.113 23.7679V24.7631L107.456 25.4199H106.401L105.744 24.7631ZM116.767 11.4676H118.698L110.995 25.4199H109.065L116.767 11.4676ZM126.408 11.4676H128.339L120.636 25.4199H118.705L126.408 11.4676Z" fill="black"/>
<rect x="21" y="58" width="288" height="315" fill="#F19F58"/>
<rect x="72" y="225" width="203.75" height="45" fill="white"/>
<path d="M76.7009 236.181H81.8164V257H76.7009V236.181ZM100.592 236.181H105.44V258.041L91.0455 245.282V257H86.2274V235.14L100.592 247.899V236.181ZM109.84 236.181H115.015V257H109.84V236.181ZM117.276 257H113.171V252.539H117.097C117.89 252.539 118.654 252.44 119.387 252.241C120.141 252.043 120.795 251.716 121.35 251.26C121.925 250.804 122.381 250.199 122.718 249.446C123.056 248.672 123.224 247.721 123.224 246.591C123.224 245.46 123.056 244.519 122.718 243.765C122.381 242.992 121.925 242.377 121.35 241.921C120.795 241.465 120.141 241.138 119.387 240.94C118.654 240.741 117.89 240.642 117.097 240.642H113.171V236.181H117.276C119.556 236.181 121.529 236.607 123.194 237.46C124.86 238.312 126.149 239.512 127.061 241.059C127.973 242.605 128.429 244.449 128.429 246.591C128.429 248.712 127.973 250.556 127.061 252.122C126.149 253.669 124.86 254.869 123.194 255.721C121.529 256.574 119.556 257 117.276 257ZM131.653 236.181H136.768V257H131.653V236.181ZM144.51 257V252.866H155.009V257H144.51ZM144.51 240.315V236.181H155.009V240.315H144.51ZM144.51 248.078V244.033H154.414V248.078H144.51ZM141.179 236.181H145.997V257H141.179V236.181ZM170.306 249.684C170.723 250.437 171.189 251.091 171.704 251.647C172.239 252.202 172.814 252.628 173.429 252.925C174.064 253.223 174.728 253.372 175.422 253.372C176.155 253.372 176.76 253.193 177.236 252.836C177.712 252.459 177.95 251.954 177.95 251.319C177.95 250.784 177.811 250.358 177.533 250.041C177.256 249.703 176.81 249.386 176.195 249.089C175.58 248.791 174.767 248.454 173.756 248.078C173.261 247.899 172.686 247.651 172.031 247.334C171.397 247.017 170.792 246.61 170.217 246.115C169.642 245.599 169.166 244.984 168.789 244.271C168.413 243.537 168.224 242.655 168.224 241.624C168.224 240.394 168.542 239.334 169.176 238.441C169.83 237.549 170.703 236.875 171.793 236.419C172.904 235.943 174.133 235.705 175.481 235.705C176.869 235.705 178.069 235.933 179.08 236.389C180.111 236.845 180.964 237.42 181.638 238.114C182.312 238.808 182.827 239.512 183.184 240.226L179.348 242.367C179.05 241.872 178.703 241.445 178.307 241.088C177.93 240.712 177.504 240.424 177.028 240.226C176.572 240.008 176.076 239.899 175.541 239.899C174.827 239.899 174.282 240.057 173.905 240.375C173.528 240.672 173.34 241.049 173.34 241.505C173.34 241.981 173.518 242.397 173.875 242.754C174.252 243.111 174.777 243.438 175.452 243.735C176.146 244.033 176.978 244.35 177.95 244.687C178.683 244.965 179.367 245.292 180.002 245.669C180.636 246.025 181.192 246.462 181.667 246.977C182.163 247.493 182.55 248.087 182.827 248.762C183.105 249.436 183.244 250.209 183.244 251.081C183.244 252.132 183.026 253.074 182.589 253.907C182.173 254.72 181.598 255.404 180.864 255.959C180.151 256.514 179.328 256.931 178.396 257.208C177.484 257.506 176.542 257.654 175.571 257.654C174.222 257.654 172.963 257.416 171.793 256.941C170.643 256.445 169.642 255.781 168.789 254.948C167.937 254.115 167.273 253.203 166.797 252.212L170.306 249.684ZM184.523 240.672V236.181H200.999V240.672H195.259V257H190.233V240.672H184.523ZM205.929 246.591C205.929 247.82 206.167 248.91 206.643 249.862C207.138 250.794 207.822 251.528 208.695 252.063C209.587 252.598 210.628 252.866 211.818 252.866C212.987 252.866 214.009 252.598 214.881 252.063C215.773 251.528 216.457 250.794 216.933 249.862C217.429 248.91 217.677 247.82 217.677 246.591C217.677 245.361 217.439 244.281 216.963 243.349C216.487 242.397 215.813 241.653 214.94 241.118C214.068 240.583 213.027 240.315 211.818 240.315C210.628 240.315 209.587 240.583 208.695 241.118C207.822 241.653 207.138 242.397 206.643 243.349C206.167 244.281 205.929 245.361 205.929 246.591ZM200.605 246.591C200.605 244.984 200.883 243.517 201.438 242.189C202.013 240.86 202.806 239.71 203.817 238.739C204.828 237.767 206.018 237.024 207.386 236.508C208.754 235.973 210.231 235.705 211.818 235.705C213.424 235.705 214.901 235.973 216.249 236.508C217.617 237.024 218.807 237.767 219.818 238.739C220.829 239.71 221.612 240.86 222.168 242.189C222.723 243.517 223 244.984 223 246.591C223 248.197 222.723 249.674 222.168 251.022C221.632 252.37 220.859 253.54 219.848 254.531C218.856 255.523 217.677 256.296 216.309 256.851C214.94 257.387 213.443 257.654 211.818 257.654C210.172 257.654 208.665 257.387 207.297 256.851C205.929 256.296 204.739 255.523 203.728 254.531C202.737 253.54 201.963 252.37 201.408 251.022C200.873 249.674 200.605 248.197 200.605 246.591ZM231.426 247.572H236.63L243.144 257H237.255L231.426 247.572ZM226.221 236.181H231.247V257H226.221V236.181ZM229.374 240.434V236.181H233.805C235.59 236.181 237.077 236.469 238.266 237.044C239.456 237.619 240.358 238.422 240.973 239.453C241.587 240.464 241.895 241.644 241.895 242.992C241.895 244.32 241.587 245.5 240.973 246.531C240.358 247.542 239.456 248.335 238.266 248.91C237.077 249.485 235.59 249.773 233.805 249.773H229.374V245.877H233.448C234.122 245.877 234.697 245.778 235.173 245.579C235.669 245.361 236.046 245.054 236.303 244.657C236.561 244.241 236.69 243.745 236.69 243.17C236.69 242.595 236.561 242.109 236.303 241.713C236.046 241.297 235.669 240.979 235.173 240.761C234.697 240.543 234.122 240.434 233.448 240.434H229.374ZM248.808 257V252.866H259.307V257H248.808ZM248.808 240.315V236.181H259.307V240.315H248.808ZM248.808 248.078V244.033H258.712V248.078H248.808ZM245.477 236.181H250.295V257H245.477V236.181Z" fill="#F19F58"/>
<path d="M203.697 164.481L193.683 165.198L201.745 155.419L200.805 151.268L204.288 141.76L193.575 126.631L187.013 128.101L167.467 104L130.243 124.221L131.183 128.101L126.231 139.483L142.432 161.577L141.227 178.448L149.241 180.731L143.047 186.51L128.255 188.859L117 207.664L128.852 205.453L135.009 196.68L129.183 201.699L124.7 202.169L131.798 193.836L159.044 192.131L174.011 177.164L174.439 176.905L176.849 180.816L203.095 174.32L206.306 176.664L201.016 185.437L197.666 184.636L198.738 177.538L194.002 186.835L201.685 189.968L213 176.737L203.697 164.487V164.481ZM160.339 124.679L165.316 125.052L165.021 128.053H161.279L160.346 124.679H160.339ZM158.152 112.58H167.57L166.666 121.726L160.358 121.304L158.074 113.351L158.152 112.58Z" fill="white"/>
<path d="M190.641 180.947L182.676 183.225L183.544 193.166L189.304 196.01L185.755 199.692L180.465 196.95L187.629 204.114L194.239 194.872L188.569 190.521L190.641 180.947Z" fill="white"/>
<path d="M163.396 194.674L155.094 198.759L149.135 212.551L163.993 205.52L155.895 206.791L158.57 202.441L170.024 197.422L173.706 183.027L164.734 190.926L163.396 194.674Z" fill="white"/>
</svg>
