<svg width="576" height="585" viewBox="0 0 576 585" fill="none" xmlns="http://www.w3.org/2000/svg">
<rect x="0.5" y="0.5" width="575" height="584" rx="18.5" fill="white" stroke="black"/>
<line x1="0.999333" y1="37.5" x2="576.001" y2="36.7334" stroke="black"/>
<line x1="42.7109" y1="3.58008" x2="42.7109" y2="37.2337" stroke="black"/>
<rect x="18.8828" y="59.9307" width="536.191" height="498.792" stroke="black"/>
<ellipse cx="22.4671" cy="18.6168" rx="8.17021" ry="8.59241" fill="#363636"/>
<path d="M56.3932 11.789H58.2443V17.9789L60.1351 16.0881H63.2599L65.2105 18.0386V26H63.3594V18.5959L62.4638 17.7003H60.5332L58.2443 19.9892V26H56.3932V11.789ZM68.6012 24.1092V17.6804H66.8099V16.0881H68.641V12.8637H70.4522V16.0881H73.5372V17.7003H70.4522V23.5121L71.3479 24.3878H73.5372V26H70.5119L68.6012 24.1092ZM76.5315 24.1092V17.6804H74.7402V16.0881H76.5713V12.8637H78.3825V16.0881H81.4675V17.7003H78.3825V23.5121L79.2781 24.3878H81.4675V26H78.4422L76.5315 24.1092ZM83.5661 16.0881H85.3375V17.76L86.9895 16.0881H90.7711L92.6619 17.9988V24.0893L90.7711 26H86.9298L85.4171 24.6864V30.2195H83.5661V16.0881ZM89.9153 24.3878L90.8109 23.4922V18.5959L89.9153 17.7003H87.3676L85.4171 19.6707V22.7557L87.2283 24.3878H89.9153ZM94.7501 24.2684V23.0344H96.6011V23.7708L97.2778 24.4276H100.781L101.458 23.7708V22.4572L100.781 21.7606H96.5016L94.8297 20.0887V17.8197L96.5414 16.0881H101.378L103.11 17.8197V19.0537H101.259V18.3173L100.582 17.6605H97.3574L96.6807 18.3173V19.5513L97.3574 20.2479H101.597L103.309 21.9596V24.2684L101.597 26H96.4817L94.7501 24.2684ZM105.15 18.5163V17.5211L105.807 16.8643H106.862L107.519 17.541V18.5163L106.862 19.1731H105.807L105.15 18.5163ZM105.15 25.3432V24.348L105.807 23.6912H106.862L107.519 24.348V25.3432L106.862 26H105.807L105.15 25.3432ZM116.174 12.0477H118.104L110.402 26H108.471L116.174 12.0477ZM125.814 12.0477H127.745L120.042 26H118.112L125.814 12.0477Z" fill="black"/>
<rect x="18" y="59" width="538" height="500" fill="#F19F58"/>
<rect x="131" y="351.145" width="311.762" height="68.8554" fill="white"/>
<path d="M138.192 368.289H146.019V400.145H138.192V368.289ZM174.749 368.289H182.167V401.737L160.141 382.214V400.145H152.769V366.696L174.749 386.219V368.289ZM188.899 368.289H196.818V400.145H188.899V368.289ZM200.276 400.145H193.996V393.318H200.003C201.217 393.318 202.385 393.167 203.507 392.863C204.66 392.56 205.661 392.059 206.511 391.362C207.391 390.664 208.088 389.738 208.604 388.586C209.12 387.402 209.378 385.946 209.378 384.217C209.378 382.487 209.12 381.046 208.604 379.894C208.088 378.71 207.391 377.77 206.511 377.072C205.661 376.374 204.66 375.874 203.507 375.57C202.385 375.267 201.217 375.115 200.003 375.115H193.996V368.289H200.276C203.765 368.289 206.784 368.941 209.332 370.246C211.881 371.55 213.853 373.386 215.248 375.752C216.644 378.119 217.342 380.94 217.342 384.217C217.342 387.463 216.644 390.284 215.248 392.681C213.853 395.048 211.881 396.883 209.332 398.188C206.784 399.492 203.765 400.145 200.276 400.145ZM222.275 368.289H230.102V400.145H222.275V368.289ZM241.948 400.145V393.819H258.013V400.145H241.948ZM241.948 374.615V368.289H258.013V374.615H241.948ZM241.948 386.492V380.303H257.103V386.492H241.948ZM236.852 368.289H244.224V400.145H236.852V368.289ZM281.419 388.95C282.056 390.102 282.769 391.104 283.558 391.953C284.377 392.803 285.257 393.455 286.198 393.91C287.169 394.365 288.185 394.593 289.247 394.593C290.369 394.593 291.295 394.32 292.023 393.773C292.751 393.197 293.115 392.423 293.115 391.453C293.115 390.633 292.903 389.981 292.478 389.496C292.053 388.98 291.37 388.495 290.43 388.039C289.489 387.584 288.246 387.069 286.698 386.492C285.94 386.219 285.06 385.84 284.059 385.354C283.088 384.869 282.163 384.247 281.283 383.489C280.403 382.7 279.675 381.759 279.098 380.667C278.522 379.545 278.234 378.195 278.234 376.617C278.234 374.736 278.719 373.113 279.69 371.748C280.691 370.382 282.026 369.351 283.695 368.653C285.394 367.925 287.275 367.561 289.338 367.561C291.461 367.561 293.297 367.91 294.844 368.608C296.422 369.305 297.726 370.185 298.758 371.247C299.789 372.309 300.578 373.386 301.124 374.478L295.254 377.755C294.799 376.996 294.268 376.344 293.661 375.798C293.085 375.221 292.432 374.781 291.704 374.478C291.006 374.144 290.248 373.977 289.429 373.977C288.337 373.977 287.502 374.22 286.926 374.706C286.349 375.161 286.061 375.737 286.061 376.435C286.061 377.163 286.334 377.8 286.88 378.346C287.457 378.892 288.261 379.393 289.292 379.848C290.354 380.303 291.628 380.789 293.115 381.304C294.237 381.729 295.284 382.23 296.255 382.806C297.226 383.352 298.075 384.02 298.803 384.808C299.562 385.597 300.153 386.507 300.578 387.539C301.003 388.57 301.215 389.754 301.215 391.088C301.215 392.696 300.882 394.137 300.214 395.412C299.577 396.656 298.697 397.702 297.575 398.552C296.482 399.401 295.223 400.038 293.798 400.463C292.402 400.918 290.961 401.146 289.474 401.146C287.411 401.146 285.485 400.782 283.695 400.054C281.935 399.295 280.403 398.279 279.098 397.004C277.794 395.73 276.778 394.335 276.049 392.818L281.419 388.95ZM303.172 375.161V368.289H328.384V375.161H319.6V400.145H311.91V375.161H303.172ZM335.926 384.217C335.926 386.098 336.29 387.766 337.018 389.223C337.777 390.649 338.823 391.771 340.158 392.59C341.524 393.409 343.116 393.819 344.937 393.819C346.727 393.819 348.289 393.409 349.624 392.59C350.989 391.771 352.036 390.649 352.764 389.223C353.522 387.766 353.902 386.098 353.902 384.217C353.902 382.336 353.538 380.682 352.81 379.256C352.081 377.8 351.05 376.662 349.715 375.843C348.38 375.024 346.787 374.615 344.937 374.615C343.116 374.615 341.524 375.024 340.158 375.843C338.823 376.662 337.777 377.8 337.018 379.256C336.29 380.682 335.926 382.336 335.926 384.217ZM327.78 384.217C327.78 381.759 328.205 379.514 329.054 377.482C329.934 375.449 331.148 373.689 332.695 372.203C334.242 370.716 336.063 369.578 338.156 368.79C340.249 367.97 342.51 367.561 344.937 367.561C347.394 367.561 349.654 367.97 351.717 368.79C353.811 369.578 355.631 370.716 357.178 372.203C358.726 373.689 359.924 375.449 360.773 377.482C361.623 379.514 362.048 381.759 362.048 384.217C362.048 386.674 361.623 388.934 360.773 390.997C359.954 393.06 358.771 394.85 357.224 396.367C355.707 397.884 353.902 399.068 351.808 399.917C349.715 400.736 347.424 401.146 344.937 401.146C342.419 401.146 340.113 400.736 338.019 399.917C335.926 399.068 334.106 397.884 332.559 396.367C331.042 394.85 329.858 393.06 329.009 390.997C328.19 388.934 327.78 386.674 327.78 384.217ZM374.94 385.719H382.903L392.87 400.145H383.859L374.94 385.719ZM366.976 368.289H374.666V400.145H366.976V368.289ZM371.799 374.797V368.289H378.58C381.311 368.289 383.586 368.729 385.406 369.609C387.227 370.489 388.607 371.717 389.548 373.295C390.488 374.842 390.958 376.647 390.958 378.71C390.958 380.743 390.488 382.548 389.548 384.126C388.607 385.673 387.227 386.887 385.406 387.766C383.586 388.646 381.311 389.086 378.58 389.086H371.799V383.125H378.034C379.066 383.125 379.945 382.973 380.674 382.669C381.432 382.336 382.008 381.866 382.403 381.259C382.797 380.622 382.994 379.863 382.994 378.983C382.994 378.104 382.797 377.36 382.403 376.753C382.008 376.116 381.432 375.631 380.674 375.297C379.945 374.963 379.066 374.797 378.034 374.797H371.799ZM401.537 400.145V393.819H417.601V400.145H401.537ZM401.537 374.615V368.289H417.601V374.615H401.537ZM401.537 386.492V380.303H416.691V386.492H401.537ZM396.44 368.289H403.812V400.145H396.44V368.289Z" fill="#F19F58"/>
<path d="M332.512 258.544L317.19 259.641L329.525 244.678L328.087 238.326L333.416 223.778L317.024 200.628L306.984 202.877L277.077 166L220.12 196.94L221.558 202.877L213.979 220.293L238.77 254.1L236.926 279.914L249.188 283.408L239.711 292.249L217.077 295.845L199.855 324.619L217.99 321.235L227.412 307.812L218.497 315.491L211.638 316.211L222.498 303.46L264.188 300.851L287.089 277.95L287.743 277.554L291.431 283.537L331.59 273.599L336.504 277.185L328.41 290.608L323.284 289.382L324.925 278.522L317.678 292.747L329.433 297.541L346.747 277.296L332.512 258.553V258.544ZM266.17 197.641L273.785 198.212L273.334 202.804H267.608L266.179 197.641H266.17ZM262.823 179.128H277.233L275.85 193.123L266.198 192.478L262.704 180.308L262.823 179.128Z" fill="white"/>
<path d="M312.536 283.738L300.348 287.223L301.676 302.435L310.49 306.787L305.059 312.42L296.965 308.225L307.927 319.187L318.04 305.044L309.365 298.388L312.536 283.738Z" fill="white"/>
<path d="M270.849 304.742L258.145 310.993L249.027 332.096L271.762 321.337L259.371 323.282L263.465 316.626L280.991 308.946L286.624 286.921L272.896 299.007L270.849 304.742Z" fill="white"/>
</svg>
